<?xml version="1.0" encoding="UTF-8"?>
<svg width="200" height="50" viewBox="0 0 200 50" fill="none" xmlns="http://www.w3.org/2000/svg">
  <!-- BOLD -->
  <path d="M16 10H27C29.7614 10 32 12.2386 32 15C32 16.8856 30.8856 18.4831 29.2676 19.1593C31.3767 19.6969 33 21.6344 33 24C33 27.3137 30.3137 30 27 30H16V10ZM26 18C27.1046 18 28 17.1046 28 16C28 14.8954 27.1046 14 26 14H20V18H26ZM27 26C28.1046 26 29 25.1046 29 24C29 22.8954 28.1046 22 27 22H20V26H27Z" fill="white"/>
  <path d="M45 10C47.7614 10 50 12.2386 50 15V25C50 27.7614 47.7614 30 45 30H38C35.2386 30 33 27.7614 33 25V15C33 12.2386 35.2386 10 38 10H45ZM45 14H38C37.4477 14 37 14.4477 37 15V25C37 25.5523 37.4477 26 38 26H45C45.5523 26 46 25.5523 46 25V15C46 14.4477 45.5523 14 45 14Z" fill="white"/>
  <path d="M53 10H62.5C67.1944 10 71 13.8056 71 18.5C71 23.1944 67.1944 27 62.5 27H57V30H53V10ZM62.5 23C64.9853 23 67 20.9853 67 18.5C67 16.0147 64.9853 14 62.5 14H57V23H62.5Z" fill="white"/>
  <path d="M73 10H77V23L88 10H93L82.5 22.5L93 30H87.5L77 21.5V30H73V10Z" fill="white"/>
  
  <!-- BYTE -->
  <path d="M106 10H117C119.761 10 122 12.2386 122 15C122 16.8856 120.886 18.4831 119.268 19.1593C121.377 19.6969 123 21.6344 123 24C123 27.3137 120.314 30 117 30H106V10ZM116 18C117.105 18 118 17.1046 118 16C118 14.8954 117.105 14 116 14H110V18H116ZM117 26C118.105 26 119 25.1046 119 24C119 22.8954 118.105 22 117 22H110V26H117Z" fill="#66FCF1"/>
  <path d="M136 10V14H130V30H126V14H120V10H136Z" fill="#66FCF1"/>
  <path d="M147 10V14H138V18H146V22H138V26H147V30H134V10H147Z" fill="#66FCF1"/>
  
  <!-- Dot/Circle connecting BOLD and BYTE -->
  <circle cx="98" cy="20" r="5" fill="#66FCF1"/>
  
  <!-- Optional decorative element: circuit-like path -->
  <path d="M90 40H110" stroke="#66FCF1" stroke-width="1"/>
  <path d="M90 40V35" stroke="#66FCF1" stroke-width="1"/>
  <path d="M110 40V35" stroke="#66FCF1" stroke-width="1"/>
  <path d="M80 35H120" stroke="#66FCF1" stroke-width="1" stroke-dasharray="2 2"/>
  
  <!-- Digital elements -->
  <circle cx="80" cy="35" r="2" fill="#66FCF1"/>
  <circle cx="120" cy="35" r="2" fill="#66FCF1"/>
</svg>