<?xml version="1.0" encoding="UTF-8"?>
<svg width="50" height="50" viewBox="0 0 50 50" fill="none" xmlns="http://www.w3.org/2000/svg">
  <!-- Background Circle -->
  <circle cx="25" cy="25" r="23" fill="#0B0C10" stroke="#66FCF1" stroke-width="2"/>
  
  <!-- B letter stylized -->
  <path d="M14 13H24C26.2091 13 28 14.7909 28 17C28 18.5983 27.1423 19.9889 25.8759 20.7682C27.7304 21.3324 29 23.0184 29 25C29 27.7614 26.7614 30 24 30H14V13ZM23 19.5C23.8284 19.5 24.5 18.8284 24.5 18C24.5 17.1716 23.8284 16.5 23 16.5H17.5V19.5H23ZM24 26.5C24.8284 26.5 25.5 25.8284 25.5 25C25.5 24.1716 24.8284 23.5 24 23.5H17.5V26.5H24Z" fill="white"/>
  
  <!-- Digital dot connection and circuit element -->
  <circle cx="32" cy="25" r="3" fill="#66FCF1"/>
  <path d="M32 28v5" stroke="#66FCF1" stroke-width="1.5"/>
  <path d="M30 33h4" stroke="#66FCF1" stroke-width="1.5"/>
  <path d="M26 33h2" stroke="#66FCF1" stroke-width="1.5" stroke-dasharray="1 1"/>
  <path d="M38 33h-2" stroke="#66FCF1" stroke-width="1.5" stroke-dasharray="1 1"/>
  
  <!-- Another highlight element -->
  <circle cx="32" cy="37" r="1.5" fill="#66FCF1"/>
</svg>